<svg xmlns="http://www.w3.org/2000/svg" viewBox="0 0 300 300" width="100%" height="100%">
  <style>
    .circle-large {
      fill: none;
      stroke: #0068b5;
      stroke-width: 2;
      opacity: 0.7;
    }
    .circle-medium {
      fill: none;
      stroke: #00a291;
      stroke-width: 1.5;
      opacity: 0.6;
    }
    .circle-small {
      fill: none;
      stroke: #00c7b1;
      stroke-width: 1;
      opacity: 0.8;
    }
    .dot {
      fill: #0068b5;
      opacity: 0.5;
    }
    .connect {
      fill: none;
      stroke: #00a291;
      stroke-width: 1;
      stroke-dasharray: 3 2;
      opacity: 0.6;
    }
    .leaf {
      fill: none;
      stroke: #00a291;
      stroke-width: 1.5;
      stroke-linecap: round;
      stroke-linejoin: round;
      opacity: 0.8;
    }
  </style>

  <!-- Main circles representing sustainability cycle -->
  <circle class="circle-large" cx="150" cy="150" r="100" />
  <circle class="circle-medium" cx="150" cy="150" r="80" />
  <circle class="circle-small" cx="150" cy="150" r="60" />
  
  <!-- Connection points -->
  <circle class="dot" cx="150" cy="50" r="4" />
  <circle class="dot" cx="150" cy="250" r="4" />
  <circle class="dot" cx="50" cy="150" r="4" />
  <circle class="dot" cx="250" cy="150" r="4" />
  <circle class="dot" cx="214" cy="86" r="4" />
  <circle class="dot" cx="86" cy="214" r="4" />
  <circle class="dot" cx="86" cy="86" r="4" />
  <circle class="dot" cx="214" cy="214" r="4" />
  
  <!-- Connecting lines -->
  <path class="connect" d="M150,50 C180,70 200,100 214,86" />
  <path class="connect" d="M214,86 C230,100 240,130 250,150" />
  <path class="connect" d="M250,150 C240,180 220,200 214,214" />
  <path class="connect" d="M214,214 C190,230 170,240 150,250" />
  <path class="connect" d="M150,250 C120,240 100,220 86,214" />
  <path class="connect" d="M86,214 C70,200 60,180 50,150" />
  <path class="connect" d="M50,150 C60,120 70,100 86,86" />
  <path class="connect" d="M86,86 C100,70 130,60 150,50" />
  
  <!-- Leaf elements suggesting sustainability -->
  <path class="leaf" d="M130,110 C150,90 170,85 180,95 C170,75 140,85 130,110" />
  <path class="leaf" d="M170,190 C190,170 210,165 220,175 C210,155 180,165 170,190" />
</svg> 